<?xml version="1.0" encoding="UTF-8"?>
<svg width="50.85mm" height="50.85mm" version="1.1" viewBox="0 0 50.85 50.85" xmlns="http://www.w3.org/2000/svg" xmlns:cc="http://creativecommons.org/ns#" xmlns:dc="http://purl.org/dc/elements/1.1/" xmlns:rdf="http://www.w3.org/1999/02/22-rdf-syntax-ns#">
 <metadata>
  <rdf:RDF>
   <cc:Work rdf:about="">
    <dc:format>image/svg+xml</dc:format>
    <dc:type rdf:resource="http://purl.org/dc/dcmitype/StillImage"/>
    <dc:title/>
   </cc:Work>
  </rdf:RDF>
 </metadata>
 <g transform="translate(-129.49 -233.45)">
  <g transform="matrix(.20671 0 0 -.20671 -192.83 2378.3)">
   <g transform="matrix(1 0 0 -1 350.02 10357)" fill="#fff" aria-label="Plásticos Pet Vidrio Papel y cartón Metal">
    <g transform="matrix(1 0 0 -1 1455.3 103.9)">
     <path d="m0 0c0-67.931-55.069-123-123-123s-123 55.069-123 123 55.069 123 123 123 123-55.069 123-123" fill="#007870"/>
    </g>
    <g transform="matrix(1 0 0 -1 1419.3 104.71)">
     <path d="m0 0c-0.308-49.231-40.47-88.887-89.701-88.578-49.232 0.307-88.891 40.469-88.583 89.7 0.312 49.232 40.47 88.892 89.705 88.579 49.227-0.307 88.887-40.469 88.579-89.701" fill="#ececec"/>
    </g>
    <g fill="#fff">
     <g transform="rotate(92.65)" aria-label="G">
      <path d="m49.115-1227.6v-3.0847h-2.5385v-1.2769h4.077v4.9308q-0.90001 0.6385-1.9846 0.9693-1.0846 0.323-2.3154 0.323-2.6923 0-4.2154-1.5692-1.5154-1.5769-1.5154-4.3847 0-2.8154 1.5154-4.3846 1.5231-1.577 4.2154-1.577 1.1231 0 2.1308 0.277 1.0154 0.2769 1.8692 0.8154v1.6538q-0.86155-0.7308-1.8308-1.1-0.96924-0.3692-2.0385-0.3692-2.1077 0-3.1693 1.1769-1.0539 1.1769-1.0539 3.5077 0 2.3231 1.0539 3.5001 1.0615 1.1769 3.1693 1.1769 0.82308 0 1.4692-0.1385 0.64616-0.1461 1.1616-0.4461z"/>
     </g>
     <g transform="rotate(87.471)" aria-label="E">
      <path d="m162.98-1228h7.2618v1.3078h-5.7079v3.4001h5.4694v1.3077h-5.4694v4.1617h5.8464v1.3078h-7.4003z"/>
     </g>
     <g transform="rotate(82.95)" aria-label="S">
      <path d="m273.71-1210.4v1.5155q-0.88465-0.4231-1.6693-0.6308-0.78465-0.2077-1.5154-0.2077-1.2693 0-1.9616 0.4923-0.68464 0.4923-0.68464 1.4001 0 0.7615 0.45386 1.1539 0.46156 0.3846 1.7385 0.6231l0.93849 0.1923q1.7385 0.3307 2.5616 1.1692 0.8308 0.8308 0.8308 2.2309 0 1.6693-1.1231 2.5308-1.1154 0.8616-3.277 0.8616-0.81541 0-1.7385-0.1846-0.91542-0.1846-1.9001-0.5462v-1.6q0.94619 0.5307 1.8539 0.8 0.90772 0.2692 1.7847 0.2692 1.3308 0 2.0539-0.5231t0.7231-1.4923q0-0.8462-0.52309-1.3231-0.5154-0.477-1.7001-0.7155l-0.94619-0.1846q-1.7385-0.3461-2.5155-1.0846t-0.77695-2.054q0-1.5231 1.0693-2.4 1.077-0.877 2.9616-0.877 0.80772 0 1.6462 0.1462 0.83849 0.1461 1.7154 0.4384z"/>
     </g>
     <g transform="rotate(78.422)" aria-label="T">
      <path d="m367.58-1185.5h9.7154v1.3077h-4.0769v10.177h-1.5616v-10.177h-4.0769z"/>
     </g>
     <g transform="rotate(75.054)" aria-label="I">
      <path d="m446.08-1161.5h1.5539v11.485h-1.5539z"/>
     </g>
     <g transform="rotate(70.843)" aria-label="Ó">
      <path d="m538.44-1124.2q-1.6923 0-2.6923 1.2615-0.99232 1.2616-0.99232 3.4385 0 2.1693 0.99232 3.4308 1 1.2616 2.6923 1.2616 1.6923 0 2.677-1.2616 0.99232-1.2615 0.99232-3.4308 0-2.1769-0.99232-3.4385-0.98462-1.2615-2.677-1.2615zm0-1.2616q2.4154 0 3.8616 1.6231 1.4462 1.6154 1.4462 4.3385 0 2.7154-1.4462 4.3385-1.4462 1.6154-3.8616 1.6154-2.4231 0-3.877-1.6154-1.4462-1.6154-1.4462-4.3385t1.4462-4.3385q1.4539-1.6231 3.877-1.6231zm0.42309-2.9154h1.4231l-1.7539 2.0308h-1.1769z"/>
     </g>
     <g transform="rotate(64.856)" aria-label="N">
      <path d="m658.7-1062.5h2.0924l5.0924 9.6079v-9.6079h1.5077v11.485h-2.0924l-5.0924-9.6079v9.6079h-1.5077z"/>
     </g>
     <g transform="rotate(58.795)" aria-label="I">
      <path d="m781.14-986.11h1.5539v11.485h-1.5539z"/>
     </g>
     <g transform="rotate(54.681)" aria-label="N">
      <path d="m853.5-927.16h2.0924l5.0924 9.6078v-9.6078h1.5077v11.485h-2.0923l-5.0924-9.6078v9.6078h-1.5077z"/>
     </g>
     <g transform="rotate(49.476)" aria-label="T">
      <path d="m942.71-845.26h9.7155v1.3077h-4.077v10.177h-1.5616v-10.177h-4.077z"/>
     </g>
     <g transform="rotate(45.01)" aria-label="E">
      <path d="m1014.9-768.63h7.2618v1.3077h-5.7079v3.4001h5.4694v1.3077h-5.4694v4.1617h5.8464v1.3077h-7.4003z"/>
     </g>
     <g transform="rotate(39.847)" aria-label="G">
      <path d="m1095.4-663.66v-3.0847h-2.5385v-1.277h4.077v4.9309q-0.9 0.63847-1.9847 0.96925-1.0846 0.32308-2.3154 0.32308-2.6924 0-4.2155-1.5693-1.5154-1.577-1.5154-4.3847 0-2.8154 1.5154-4.3847 1.5231-1.577 4.2155-1.577 1.1231 0 2.1308 0.27693 1.0154 0.27693 1.8693 0.8154v1.6539q-0.8616-0.73079-1.8308-1.1-0.9693-0.36924-2.0385-0.36924-2.1078 0-3.1693 1.177-1.0539 1.177-1.0539 3.5078 0 2.3231 1.0539 3.5001 1.0615 1.177 3.1693 1.177 0.8231 0 1.4692-0.13846 0.6462-0.14616 1.1616-0.44617z"/>
     </g>
     <g transform="rotate(34.453)" aria-label="R">
      <path d="m1161.5-561.49q0.5 0.16923 0.9693 0.72309 0.4769 0.55385 0.9538 1.5231l1.577 3.1385h-1.6693l-1.4692-2.9462q-0.5693-1.1539-1.1077-1.5308-0.5308-0.37693-1.4539-0.37693h-1.6923v4.8539h-1.5539v-11.485h3.5077q1.9693 0 2.9386 0.82309 0.9692 0.82309 0.9692 2.4847 0 1.0846-0.5077 1.8-0.5 0.71539-1.4616 0.99232zm-3.8923-4.8232v4.077h1.9538q1.1231 0 1.6924-0.51539 0.5769-0.52308 0.5769-1.5308t-0.5769-1.5154q-0.5693-0.5154-1.6924-0.5154z"/>
     </g>
     <g transform="rotate(29.136)" aria-label="A">
      <path d="m1216-455.76-2.1078 5.7156h4.2233zm-0.877-1.5308h1.7616l4.3771 11.485h-1.6154l-1.0462-2.9463h-5.1771l-1.0462 2.9463h-1.6385z"/>
     </g>
     <g transform="rotate(24.225)" aria-label="L">
      <path d="m1256.2-351.21h1.5538v10.177h5.5924v1.3077h-7.1462z"/>
     </g>
     <g transform="rotate(17.134)" aria-label="D">
      <path d="m1302.3-191.21v8.9311h1.877q2.377 0 3.4771-1.077 1.1077-1.077 1.1077-3.4001 0-2.3078-1.1077-3.377-1.1001-1.077-3.4771-1.077zm-1.5539-1.277h3.1925q3.3385 0 4.9001 1.3924 1.5616 1.3847 1.5616 4.3386 0 2.9693-1.5693 4.3617-1.5693 1.3924-4.8924 1.3924h-3.1925z"/>
     </g>
     <g transform="rotate(11.995)" aria-label="E">
      <path d="m1323.1-74.383h7.2618v1.3077h-5.7079v3.4001h5.4695v1.3077h-5.4695v4.1617h5.8464v1.3077h-7.4003z"/>
     </g>
     <g transform="rotate(5.2908)" aria-label="R">
      <path d="m1339.2 87.559q0.5 0.16923 0.9693 0.72309 0.4769 0.55386 0.9538 1.5231l1.577 3.1385h-1.6693l-1.4692-2.9462q-0.5693-1.1539-1.1078-1.5308-0.5307-0.37693-1.4538-0.37693h-1.6924v4.8539h-1.5538v-11.485h3.5077q1.9693 0 2.9385 0.82309 0.9693 0.82309 0.9693 2.4847 0 1.0846-0.5077 1.8-0.5 0.7154-1.4616 0.99232zm-3.8924-4.8232v4.077h1.9539q1.1231 0 1.6924-0.51539 0.5769-0.52308 0.5769-1.5308 0-1.0077-0.5769-1.5154-0.5693-0.51539-1.6924-0.51539z"/>
     </g>
     <g transform="rotate(.56736)" aria-label="E">
      <path d="m1330.9 191.54h7.2617v1.3077h-5.7079v3.4001h5.4694v1.3077h-5.4694v4.1616h5.8463v1.3077h-7.4001z"/>
     </g>
     <g transform="rotate(-3.8941)" aria-label="S">
      <path d="m1326.4 295.33v1.5154q-0.8847-0.42308-1.6693-0.63078t-1.5154-0.2077q-1.2693 0-1.9616 0.49232-0.6846 0.49232-0.6846 1.4 0 0.76156 0.4538 1.1539 0.4616 0.38462 1.7385 0.62309l0.9385 0.19231q1.7385 0.33077 2.5616 1.1693 0.8308 0.83078 0.8308 2.2308 0 1.6693-1.1231 2.5308-1.1154 0.86156-3.277 0.86156-0.8154 0-1.7385-0.18462-0.9154-0.18462-1.9001-0.54617v-1.6q0.9462 0.53078 1.8539 0.80001 0.9077 0.26924 1.7847 0.26924 1.3308 0 2.0539-0.52309t0.7231-1.4923q0-0.84617-0.5231-1.3231-0.5154-0.47693-1.7001-0.7154l-0.9461-0.18462q-1.7385-0.34616-2.5155-1.0846-0.7769-0.73847-0.7769-2.0539 0-1.5231 1.0692-2.4 1.077-0.87694 2.9616-0.87694 0.8078 0 1.6462 0.14615 0.8385 0.14616 1.7155 0.43847z"/>
     </g>
     <g transform="rotate(-7.3125)" aria-label="I">
      <path d="m1307.4 373.53h1.5539v11.485h-1.5539z"/>
     </g>
     <g transform="rotate(-11.487)" aria-label="D">
      <path d="m1282 469.21v8.9311h1.877q2.377 0 3.4771-1.077 1.1077-1.077 1.1077-3.4001 0-2.3078-1.1077-3.377-1.1001-1.077-3.4771-1.077zm-1.5539-1.277h3.1924q3.3386 0 4.9002 1.3924 1.5616 1.3847 1.5616 4.3386 0 2.9693-1.5693 4.3617t-4.8925 1.3924h-3.1924z"/>
     </g>
     <g transform="rotate(-17.354)" aria-label="U">
      <path d="m1235.9 597.29h1.5615v6.977q0 1.8462 0.6693 2.6616 0.6692 0.8077 2.1692 0.8077 1.4923 0 2.1616-0.8077 0.6692-0.81539 0.6692-2.6616v-6.977h1.5616v7.1693q0 2.2462-1.1154 3.3923-1.1077 1.1462-3.277 1.1462-2.1769 0-3.2923-1.1462-1.1077-1.1462-1.1077-3.3923z"/>
     </g>
     <g transform="rotate(-23.349)" aria-label="O">
      <path d="m1181.7 725.04q-1.6924 0-2.6924 1.2616-0.9924 1.2616-0.9924 3.4386 0 2.1693 0.9924 3.4309 1 1.2616 2.6924 1.2616 1.6923 0 2.677-1.2616 0.9923-1.2616 0.9923-3.4309 0-2.177-0.9923-3.4386-0.9847-1.2616-2.677-1.2616zm0-1.2616q2.4154 0 3.8616 1.6231 1.4462 1.6154 1.4462 4.3386 0 2.7155-1.4462 4.3386-1.4462 1.6154-3.8616 1.6154-2.4232 0-3.8771-1.6154-1.4462-1.6154-1.4462-4.3386t1.4462-4.3386q1.4539-1.6231 3.8771-1.6231z"/>
     </g>
     <g transform="rotate(-28.641)" aria-label="S">
      <path d="m1122.7 830.71v1.5154q-0.8846-0.42309-1.6693-0.63079-0.7846-0.2077-1.5154-0.2077-1.2693 0-1.9616 0.49232-0.6846 0.49233-0.6846 1.4 0 0.76157 0.4538 1.1539 0.4616 0.38463 1.7385 0.6231l0.9385 0.19231q1.7386 0.33078 2.5617 1.1693 0.8308 0.8308 0.8308 2.2308 0 1.6693-1.1231 2.5309-1.1155 0.86157-3.2771 0.86157-0.8154 0-1.7385-0.18462-0.9154-0.18463-1.9001-0.54618v-1.6q0.9462 0.53079 1.8539 0.80003 0.9078 0.26924 1.7847 0.26924 1.3308 0 2.0539-0.5231 0.7231-0.52309 0.7231-1.4924 0-0.84618-0.5231-1.3231-0.5154-0.47694-1.7-0.71541l-0.9462-0.18462q-1.7385-0.34617-2.5155-1.0847-0.7769-0.73849-0.7769-2.0539 0-1.5231 1.0692-2.4001 1.077-0.87696 2.9617-0.87696 0.8077 0 1.6462 0.14616t1.7154 0.43848z"/>
     </g>
     <g transform="rotate(-35.831)" aria-label="D">
      <path d="m1015.6 965.67v8.931h1.877q2.3769 0 3.477-1.077 1.1077-1.077 1.1077-3.4001 0-2.3077-1.1077-3.377-1.1001-1.0769-3.477-1.0769zm-1.5539-1.277h3.1924q3.3385 0 4.9001 1.3923 1.5616 1.3846 1.5616 4.3386 0 2.9693-1.5693 4.3616t-4.8924 1.3923h-3.1924z"/>
     </g>
     <g transform="rotate(-41.084)" aria-label="E">
      <path d="m931.94 1054.1h7.2618v1.3077h-5.7079v3.4002h5.4694v1.3077h-5.4694v4.1617h5.8464v1.3077h-7.4003z"/>
     </g>
     <g transform="rotate(-45.554)" aria-label="S">
      <path d="m861.41 1124.1v1.5154q-0.88462-0.4231-1.6692-0.6308-0.78462-0.2077-1.5154-0.2077-1.2692 0-1.9616 0.4924-0.68462 0.4923-0.68462 1.4 0 0.7615 0.45385 1.1538 0.46154 0.3846 1.7385 0.6231l0.93848 0.1923q1.7385 0.3308 2.5616 1.1693 0.83078 0.8307 0.83078 2.2308 0 1.6692-1.1231 2.5307-1.1154 0.8616-3.277 0.8616-0.81539 0-1.7385-0.1846-0.91539-0.1846-1.9-0.5462v-1.6q0.94616 0.5308 1.8539 0.8t1.7846 0.2692q1.3308 0 2.0539-0.523 0.72308-0.5231 0.72308-1.4924 0-0.8461-0.52308-1.323-0.51539-0.477-1.7-0.7154l-0.94616-0.1847q-1.7385-0.3461-2.5154-1.0846t-0.77693-2.0538q0-1.5231 1.0692-2.4001 1.0769-0.8769 2.9616-0.8769 0.8077 0 1.6462 0.1462 0.83847 0.1461 1.7154 0.4384z"/>
     </g>
     <g transform="rotate(-50.856)" aria-label="D">
      <path d="m756.22 1200v8.931h1.877q2.377 0 3.477-1.077 1.1077-1.0769 1.1077-3.4001 0-2.3077-1.1077-3.377-1.1-1.0769-3.477-1.0769zm-1.5539-1.277h3.1924q3.3385 0 4.9001 1.3924 1.5616 1.3846 1.5616 4.3385 0 2.9693-1.5693 4.3617-1.5693 1.3923-4.8924 1.3923h-3.1924z"/>
     </g>
     <g transform="rotate(-56.082)" aria-label="E">
      <path d="m652.62 1263.1h7.2616v1.3077h-5.7078v3.4h5.4693v1.3077h-5.4693v4.1616h5.8462v1.3078h-7.4001z"/>
     </g>
     <g transform="rotate(-62.618)" aria-label="E">
      <path d="m515.68 1330.1h7.2616v1.3077h-5.7077v3.4h5.4692v1.3077h-5.4692v4.1616h5.8462v1.3077h-7.4z"/>
     </g>
     <g transform="rotate(-67.037)" aria-label="L">
      <path d="m419.35 1366.4h1.5539v10.177h5.5924v1.3077h-7.1463z"/>
     </g>
     <g transform="rotate(-74.165)" aria-label="O">
      <path d="m261.93 1410q-1.6923 0-2.6924 1.2616-0.99233 1.2615-0.99233 3.4385 0 2.1693 0.99233 3.4309 1 1.2615 2.6924 1.2615 1.6924 0 2.677-1.2615 0.99233-1.2616 0.99233-3.4309 0-2.177-0.99233-3.4385-0.98464-1.2616-2.677-1.2616zm0-1.2616q2.4154 0 3.8616 1.6232 1.4462 1.6154 1.4462 4.3385 0 2.7155-1.4462 4.3386-1.4462 1.6154-3.8616 1.6154-2.4231 0-3.877-1.6154-1.4462-1.6155-1.4462-4.3386t1.4462-4.3385q1.4539-1.6232 3.877-1.6232z"/>
     </g>
     <g transform="rotate(-79.632)" aria-label="R">
      <path d="m137.86 1433.8q0.50001 0.1692 0.96925 0.7231 0.47693 0.5538 0.95387 1.5231l1.577 3.1385h-1.6693l-1.4693-2.9462q-0.56924-1.1539-1.1077-1.5308-0.53078-0.3769-1.4539-0.3769h-1.6924v4.8539h-1.5539v-11.485h3.5078q1.9693 0 2.9385 0.8231t0.96925 2.4847q0 1.0846-0.5077 1.8-0.50001 0.7154-1.4616 0.9924zm-3.8924-4.8232v4.077h1.9539q1.1231 0 1.6924-0.5154 0.57693-0.5231 0.57693-1.5308t-0.57693-1.5154q-0.56925-0.5154-1.6924-0.5154z"/>
     </g>
     <g transform="rotate(-83.233)" aria-label="I">
      <path d="m51.017 1433.6h1.5539v11.485h-1.5539z"/>
     </g>
     <g transform="rotate(-87.303)" aria-label="G">
      <path d="m-39.392 1443.7v-3.0847h-2.5386v-1.277h4.0771v4.931q-0.90003 0.6384-1.9847 0.9692-1.0847 0.3231-2.3155 0.3231-2.6924 0-4.2155-1.5693-1.5154-1.577-1.5154-4.3847 0-2.8155 1.5154-4.3848 1.5231-1.577 4.2155-1.577 1.1231 0 2.1308 0.2769 1.0154 0.277 1.8693 0.8155v1.6539q-0.86157-0.7308-1.8308-1.1001-0.96926-0.3692-2.0385-0.3692-2.1078 0-3.1693 1.1769-1.0539 1.177-1.0539 3.5079 0 2.3231 1.0539 3.5001 1.0616 1.1769 3.1693 1.1769 0.82311 0 1.4693-0.1384 0.64618-0.1462 1.1616-0.4462z"/>
     </g>
     <g transform="rotate(267.51)" aria-label="E">
      <path d="m-166.69 1424.6h7.2618v1.3077h-5.7079v3.4001h5.4694v1.3078h-5.4694v4.1617h5.8464v1.3077h-7.4003z"/>
     </g>
     <g transform="rotate(262.29)" aria-label="N">
      <path d="m-287.94 1404h2.0923l5.0924 9.6078v-9.6078h1.5077v11.485h-2.0923l-5.0924-9.6078v9.6078h-1.5077z"/>
     </g>
    </g>
    <g fill="#007870">
     <g transform="rotate(71.822)" aria-label="G">
      <path d="m523.45-1151.3q-1.836 0.8925-3.8123 1.3388-1.9762 0.4463-4.08 0.4463-4.7558 0-7.5353-2.6521-2.7795-2.6647-2.7795-7.2165 0-4.6028 2.8305-7.242 2.8305-2.6393 7.752-2.6393 1.8998 0 3.6338 0.357 1.7468 0.357 3.2895 1.0583v3.9397q-1.5938-0.9052-3.1748-1.3515-1.5682-0.4462-3.1493-0.4462-2.9325 0-4.5263 1.6447-1.581 1.6321-1.581 4.6793 0 3.0218 1.53 4.6665 1.53 1.6448 4.3478 1.6448 0.765 0 1.4153-0.089 0.663-0.102 1.1858-0.306v-3.6975h-2.9963v-3.2895h7.65z"/>
     </g>
     <g transform="rotate(60.489)" aria-label="I">
      <path d="m744.47-1044h4.9088v19.036h-4.9088z"/>
     </g>
     <g transform="rotate(49.596)" aria-label="R">
      <path d="m941.82-874.57q1.5428 0 2.2058-0.57376 0.67576-0.57375 0.67576-1.887 0-1.3005-0.67576-1.8615-0.66301-0.56101-2.2058-0.56101h-2.0655v4.8833zm-2.0655 3.3916v7.2039h-4.9088v-19.036h7.4971q3.7613 0 5.5081 1.2623 1.7595 1.2623 1.7595 3.9908 0 1.887-0.91802 3.0983-0.90526 1.2113-2.7413 1.785 1.0073 0.2295 1.7978 1.0455 0.80326 0.80326 1.6193 2.448l2.6648 5.4061h-5.2276l-2.3205-4.7303q-0.70126-1.428-1.428-1.9508-0.71402-0.52275-1.9125-0.52275z"/>
     </g>
     <g transform="rotate(33.568)" aria-label="O">
      <path d="m1167.5-582.89q-2.244 0-3.4808 1.6575-1.2368 1.6575-1.2368 4.6666 0 2.9963 1.2368 4.6538 1.2368 1.6575 3.4808 1.6575 2.2568 0 3.4936-1.6575 1.2367-1.6575 1.2367-4.6538 0-3.009-1.2367-4.6666-1.2368-1.6575-3.4936-1.6575zm0-3.5573q4.5901 0 7.1911 2.6265 2.6011 2.6265 2.6011 7.2549 0 4.6156-2.6011 7.2421-2.601 2.6265-7.1911 2.6265-4.5773 0-7.1911-2.6265-2.601-2.6265-2.601-7.2421 0-4.6283 2.601-7.2549 2.6138-2.6265 7.1911-2.6265z"/>
     </g>
     <g transform="rotate(-.71555)" aria-label="G">
      <path d="m1339.3 201.33q-1.836 0.8925-3.8122 1.3388-1.9763 0.44625-4.0801 0.44625-4.7557 0-7.5352-2.652-2.7795-2.6648-2.7795-7.2165 0-4.6028 2.8305-7.242t7.752-2.6393q1.8998 0 3.6338 0.357 1.7467 0.357 3.2895 1.0583v3.9398q-1.5938-0.90525-3.1748-1.3515-1.5682-0.44625-3.1492-0.44625-2.9326 0-4.5263 1.6448-1.581 1.632-1.581 4.6793 0 3.0218 1.53 4.6665 1.53 1.6448 4.3478 1.6448 0.765 0 1.4152-0.0893 0.663-0.102 1.1858-0.306v-3.6975h-2.9963v-3.2895h7.65z"/>
     </g>
     <g transform="rotate(-12.059)" aria-label="I">
      <path d="m1278.5 442.91h4.9088v19.036h-4.9088z"/>
     </g>
     <g transform="rotate(-23.001)" aria-label="R">
      <path d="m1184.5 687.43q1.5428 0 2.2058-0.57376 0.6758-0.57375 0.6758-1.887 0-1.3005-0.6758-1.8615-0.663-0.56101-2.2058-0.56101h-2.0655v4.8833zm-2.0655 3.3916v7.2039h-4.9088v-19.036h7.4971q3.7613 0 5.5081 1.2623 1.7595 1.2623 1.7595 3.9908 0 1.887-0.918 3.0983-0.9053 1.2113-2.7413 1.785 1.0073 0.2295 1.7978 1.0455 0.8032 0.80326 1.6193 2.448l2.6647 5.4061h-5.2275l-2.3206-4.7303q-0.7012-1.428-1.428-1.9508-0.714-0.52275-1.9125-0.52275z"/>
     </g>
     <g transform="rotate(-39.035)" aria-label="O">
      <path d="m969.42 985.5q-2.244 0-3.4808 1.6575-1.2368 1.6575-1.2368 4.6666 0 2.9963 1.2368 4.6538 1.2368 1.6575 3.4808 1.6575 2.2568 0 3.4936-1.6575 1.2368-1.6575 1.2368-4.6538 0-3.009-1.2368-4.6666-1.2368-1.6575-3.4936-1.6575zm0-3.5573q4.5901 0 7.1911 2.6265t2.601 7.2549q0 4.6156-2.601 7.2421-2.601 2.6266-7.1911 2.6266-4.5773 0-7.1911-2.6266-2.601-2.6265-2.601-7.2421 0-4.6283 2.601-7.2549 2.6138-2.6265 7.1911-2.6265z"/>
     </g>
     <g transform="rotate(-73.382)" aria-label="G">
      <path d="m290.74 1386q-1.836 0.8926-3.8123 1.3388-1.9763 0.4463-4.0801 0.4463-4.7558 0-7.5354-2.6521-2.7796-2.6648-2.7796-7.2166 0-4.6028 2.8306-7.2421 2.8305-2.6393 7.7521-2.6393 1.8998 0 3.6338 0.357 1.7468 0.357 3.2896 1.0583v3.9398q-1.5938-0.9053-3.1748-1.3515-1.5683-0.4463-3.1493-0.4463-2.9326 0-4.5263 1.6448-1.581 1.632-1.581 4.6793 0 3.0218 1.53 4.6666 1.53 1.6448 4.3478 1.6448 0.76501 0 1.4153-0.089 0.66301-0.102 1.1858-0.306v-3.6975h-2.9963v-3.2896h7.6501z"/>
     </g>
     <g transform="rotate(-84.693)" aria-label="I">
      <path d="m18.222 1398.2h4.9088v19.036h-4.9088z"/>
     </g>
     <g transform="rotate(264.59)" aria-label="R">
      <path d="m-228.89 1387q1.5428 0 2.2058-0.5738 0.67576-0.5738 0.67576-1.887 0-1.3005-0.67576-1.8616-0.66301-0.561-2.2058-0.561h-2.0655v4.8834zm-2.0655 3.3915v7.2039h-4.9088v-19.036h7.4971q3.7613 0 5.5081 1.2623 1.7595 1.2623 1.7595 3.9908 0 1.887-0.91801 3.0983-0.90526 1.2113-2.7413 1.785 1.0073 0.2295 1.7978 1.0456 0.80327 0.8032 1.6193 2.448l2.6648 5.4061h-5.2276l-2.3205-4.7303q-0.70126-1.4281-1.428-1.9508-0.71401-0.5228-1.9125-0.5228z"/>
     </g>
     <g transform="rotate(248.4)" aria-label="O">
      <path d="m-585.78 1265.8q-2.244 0-3.4808 1.6575-1.2368 1.6576-1.2368 4.6666 0 2.9962 1.2368 4.6537 1.2368 1.6575 3.4808 1.6575 2.2568 0 3.4935-1.6575t1.2368-4.6537q0-3.009-1.2368-4.6666-1.2368-1.6575-3.4935-1.6575zm0-3.5572q4.59 0 7.191 2.6265t2.601 7.2548q0 4.6155-2.601 7.242t-7.191 2.6265q-4.5773 0-7.191-2.6265-2.601-2.6265-2.601-7.242 0-4.6283 2.601-7.2548 2.6138-2.6265 7.191-2.6265z"/>
     </g>
     <g transform="rotate(214.18)" aria-label="G">
      <path d="m-1149.8 742.72q-1.836 0.8925-3.8122 1.3388-1.9763 0.44625-4.08 0.44625-4.7558 0-7.5352-2.652-2.7795-2.6647-2.7795-7.2165 0-4.6027 2.8305-7.242 2.8304-2.6392 7.7519-2.6392 1.8998 0 3.6338 0.357 1.7467 0.357 3.2895 1.0582v3.9397q-1.5938-0.90524-3.1748-1.3515-1.5682-0.44625-3.1492-0.44625-2.9325 0-4.5263 1.6447-1.581 1.632-1.581 4.6792 0 3.0217 1.53 4.6665 1.53 1.6447 4.3478 1.6447 0.765 0 1.4152-0.0892 0.663-0.102 1.1858-0.306v-3.6975h-2.9963v-3.2895h7.65z"/>
     </g>
     <g transform="rotate(202.83)" aria-label="I">
      <path d="m-1268.4 484.05h4.9088v19.036h-4.9088z"/>
     </g>
     <g transform="rotate(191.87)" aria-label="R">
      <path d="m-1324 243.76q1.5427 0 2.2057-0.57375 0.6758-0.57376 0.6758-1.887 0-1.3005-0.6758-1.8615-0.663-0.561-2.2057-0.561h-2.0655v4.8833zm-2.0655 3.3915v7.2038h-4.9088v-19.036h7.497q3.7613 0 5.5081 1.2623 1.7595 1.2622 1.7595 3.9908 0 1.887-0.918 3.0983-0.9053 1.2112-2.7413 1.785 1.0073 0.2295 1.7978 1.0455 0.8032 0.80325 1.6192 2.448l2.6648 5.406h-5.2276l-2.3205-4.7303q-0.7012-1.428-1.428-1.9508-0.714-0.52275-1.9125-0.52275z"/>
     </g>
     <g transform="rotate(175.94)" aria-label="O">
      <path d="m-1319.3-131.5q-2.244 0-3.4808 1.6575-1.2367 1.6575-1.2367 4.6666 0 2.9963 1.2367 4.6538 1.2368 1.6575 3.4808 1.6575 2.2568 0 3.4936-1.6575 1.2368-1.6575 1.2368-4.6538 0-3.009-1.2368-4.6666-1.2368-1.6575-3.4936-1.6575zm0-3.5573q4.5901 0 7.1912 2.6265 2.601 2.6265 2.601 7.2549 0 4.6156-2.601 7.2421-2.6011 2.6265-7.1912 2.6265-4.5773 0-7.1911-2.6265-2.601-2.6265-2.601-7.2421 0-4.6283 2.601-7.2549 2.6138-2.6265 7.1911-2.6265z"/>
     </g>
     <g transform="rotate(141.48)" aria-label="G">
      <path d="m-967.13-829.28q-1.836 0.8925-3.8123 1.3388t-4.08 0.44625q-4.7558 0-7.5353-2.652-2.7795-2.6648-2.7795-7.2165 0-4.6028 2.8305-7.242 2.8305-2.6393 7.752-2.6393 1.8998 0 3.6338 0.357 1.7468 0.357 3.2895 1.0582v3.9398q-1.5938-0.90525-3.1748-1.3515-1.5683-0.44625-3.1493-0.44625-2.9325 0-4.5263 1.6448-1.581 1.632-1.581 4.6793 0 3.0218 1.53 4.6665 1.53 1.6448 4.3478 1.6448 0.765 0 1.4152-0.0892 0.663-0.102 1.1858-0.306v-3.6975h-2.9963v-3.2895h7.65z"/>
     </g>
     <g transform="rotate(130.28)" aria-label="I">
      <path d="m-782.72-1019.3h4.9088v19.036h-4.9088z"/>
     </g>
     <g transform="rotate(119.41)" aria-label="R">
      <path d="m-563.11-1138.8q1.5428 0 2.2058-0.5737 0.67576-0.5738 0.67576-1.8871 0-1.3005-0.67576-1.8615-0.66301-0.561-2.2058-0.561h-2.0655v4.8833zm-2.0655 3.3916v7.2038h-4.9088v-19.036h7.4971q3.7613 0 5.5081 1.2623 1.7595 1.2622 1.7595 3.9908 0 1.887-0.91801 3.0983-0.90527 1.2112-2.7413 1.785 1.0073 0.2295 1.7978 1.0455 0.80326 0.8033 1.6193 2.4481l2.6648 5.406h-5.2276l-2.3205-4.7303q-0.70126-1.428-1.428-1.9508-0.71401-0.5227-1.9125-0.5227z"/>
     </g>
     <g transform="rotate(103.21)" aria-label="O">
      <path d="m-202.24-1253q-2.244 0-3.4808 1.6575-1.2368 1.6575-1.2368 4.6665 0 2.9963 1.2368 4.6538 1.2368 1.6575 3.4808 1.6575 2.2568 0 3.4935-1.6575 1.2368-1.6575 1.2368-4.6538 0-3.009-1.2368-4.6665-1.2368-1.6575-3.4935-1.6575zm0-3.5573q4.59 0 7.191 2.6265 2.601 2.6266 2.601 7.2548 0 4.6155-2.601 7.2421-2.601 2.6265-7.191 2.6265-4.5773 0-7.191-2.6265-2.601-2.6266-2.601-7.2421 0-4.6282 2.601-7.2548 2.6138-2.6265 7.191-2.6265z"/>
     </g>
    </g>
    <g transform="matrix(1 0 0 -1 1345.7 126.67)">
     <path d="m0 0-0.899 10.233s-18.817-20.377-18.538-20.745c0.284-0.373 18.991-18.238 18.991-18.238l1.272 10.541s26.06 5.303 30.917 33.732c0 0-5.975-15.369-31.743-15.523" fill="#009f9a"/>
    </g>
    <g transform="matrix(1 0 0 -1 1377.4 111.15)">
     <path d="m0 0c2.309 11.804-2.463 22.884-2.463 22.884l-22.742-9.338s8.669-16.617 6.51-27.425c14.839 3.99 18.695 13.879 18.695 13.879" fill="#007870"/>
    </g>
    <g transform="matrix(1 0 0 -1 1347.6 130.63)">
     <path d="m0 0c2.034 0.118 4.067 0.235 6.101 0.353 0.272 0.016 0.45 0.348 0.405 0.591-0.053 0.3-0.32 0.425-0.591 0.41-2.034-0.118-4.068-0.236-6.105-0.353-0.272-0.017-0.45-0.349-0.405-0.592 0.053-0.3 0.32-0.425 0.595-0.409" fill="#007870"/>
    </g>
    <g transform="matrix(1 0 0 -1 1352.8 132.26)">
     <path d="m0 0 1.175-0.102c0.13-7e-3 0.271 0.033 0.372 0.118 0.094 0.081 0.175 0.222 0.179 0.348 0.012 0.276-0.179 0.527-0.462 0.551l-1.179 0.098c-0.129 0.011-0.271-0.034-0.369-0.118-0.097-0.082-0.174-0.219-0.178-0.344-0.012-0.276 0.178-0.528 0.462-0.551" fill="#007870"/>
    </g>
    <g transform="matrix(1 0 0 -1 1342.9 126.45)">
     <path d="m0 0c0.028-0.252 0.057-0.499 0.085-0.75 8e-3 -0.064 0.037-0.126 0.077-0.178 0.033-0.057 0.077-0.105 0.13-0.142 0.057-0.04 0.122-0.069 0.186-0.077 0.065-0.02 0.13-0.024 0.203-8e-3 0.125 0.028 0.247 0.097 0.324 0.207 0.02 0.04 0.04 0.081 0.06 0.117 0.033 0.089 0.037 0.179 0.025 0.271-0.028 0.248-0.061 0.495-0.089 0.746-8e-3 0.065-0.037 0.129-0.073 0.182-0.032 0.057-0.077 0.106-0.134 0.142-0.052 0.041-0.117 0.069-0.186 0.077-0.061 0.02-0.134 0.02-0.199 4e-3 -0.129-0.025-0.255-0.093-0.324-0.202l-0.061-0.122c-0.032-0.085-0.04-0.174-0.024-0.267" fill="#007870"/>
    </g>
    <g transform="matrix(1 0 0 -1 1341.7 127.02)">
     <path d="M 0,0 C 0.652,-0.057 0.745,0.96 0.085,1.013 -0.567,1.069 -0.652,0.057 0,0" fill="#007870"/>
    </g>
    <g transform="matrix(1 0 0 -1 1332 136.31)">
     <path d="m0 0c0.932 1.26 1.867 2.521 2.803 3.78 0.393 0.527-0.441 1.114-0.834 0.587-0.932-1.26-1.868-2.519-2.803-3.779-0.394-0.526 0.441-1.114 0.834-0.588" fill="#007870"/>
    </g>
    <g transform="matrix(1 0 0 -1 1330.7 135.11)">
     <path d="m0 0c0.214 0.178 0.425 0.356 0.636 0.538 0.056 0.041 0.097 0.094 0.121 0.154 0.037 0.057 0.057 0.121 0.061 0.191 8e-3 0.068 0 0.134-0.028 0.198-0.017 0.065-0.045 0.122-0.089 0.175-0.094 0.093-0.211 0.174-0.348 0.178-0.134 3e-3 -0.268-0.029-0.374-0.118-0.21-0.178-0.421-0.36-0.635-0.539-0.053-0.04-0.094-0.092-0.118-0.153-0.037-0.058-0.057-0.122-0.06-0.195-9e-3 -0.069 0-0.133 0.028-0.195 0.016-0.064 0.044-0.125 0.089-0.173 0.089-0.098 0.211-0.174 0.344-0.179 0.134-8e-3 0.271 0.028 0.373 0.118" fill="#007870"/>
    </g>
    <g transform="matrix(1 0 0 -1 1338.6 144.97)">
     <path d="m0 0c0.993-1.361 2.188-2.577 3.524-3.602 0.223-0.166 0.559-0.093 0.713 0.125 0.162 0.232 0.094 0.539-0.121 0.709-1.276 0.977-2.39 2.127-3.338 3.424-0.162 0.223-0.519 0.231-0.717 0.061-0.223-0.187-0.223-0.494-0.061-0.717" fill="#007870"/>
    </g>
    <g transform="matrix(1 0 0 -1 1341 144.87)">
     <path d="m0 0c0.044-0.053 0.085-0.105 0.133-0.158 0.041-0.053 0.094-0.093 0.155-0.117 0.056-0.04 0.121-0.061 0.19-0.061 0.073-9e-3 0.138 0 0.202 0.024 0.065 0.016 0.118 0.048 0.171 0.093 0.028 0.032 0.06 0.061 0.085 0.094 0.056 0.076 0.085 0.157 0.093 0.251 0 0.044-4e-3 0.093-4e-3 0.138-0.021 0.085-0.057 0.166-0.114 0.234-0.044 0.053-0.089 0.106-0.138 0.158-0.036 0.053-0.088 0.094-0.153 0.117-0.053 0.041-0.118 0.062-0.191 0.066-0.069 4e-3 -0.134-4e-3 -0.194-0.028-0.069-0.017-0.126-0.049-0.174-0.094-0.029-0.032-0.061-0.061-0.089-0.097-0.053-0.073-0.081-0.158-0.09-0.247 0-0.045 4e-3 -0.094 4e-3 -0.138 0.021-0.085 0.053-0.166 0.114-0.235" fill="#007870"/>
    </g>
    <g transform="matrix(1 0 0 -1 1345.3 143.17)">
     <path d="M 0,0 C 0.652,-0.057 0.741,0.96 0.085,1.013 -0.567,1.069 -0.652,0.057 0,0" fill="#007870"/>
    </g>
    <g transform="matrix(1 0 0 -1 1335.1 141.3)">
     <path d="m0 0c0.129-0.207 0.259-0.418 0.393-0.624 0.028-0.061 0.065-0.113 0.117-0.154 0.045-0.053 0.097-0.085 0.166-0.106 0.065-0.028 0.13-0.036 0.203-0.028 0.064-4e-3 0.129 0.013 0.19 0.045 0.114 0.06 0.219 0.158 0.26 0.283 7e-3 0.045 0.02 0.09 0.028 0.134 8e-3 0.094-8e-3 0.179-0.049 0.263-0.125 0.207-0.255 0.417-0.385 0.624-0.028 0.065-0.069 0.114-0.121 0.154-0.045 0.049-0.101 0.086-0.166 0.105-0.065 0.029-0.134 0.037-0.203 0.025-0.065 4e-3 -0.129-0.012-0.19-0.044-0.118-0.062-0.219-0.155-0.26-0.281-0.012-0.047-0.02-0.088-0.032-0.137-8e-3 -0.089 8e-3 -0.174 0.049-0.259" fill="#007870"/>
    </g>
    <g transform="matrix(1 0 0 -1 1332.7 140.47)">
     <path d="M 0,0 C 0.652,-0.057 0.741,0.96 0.085,1.013 -0.571,1.073 -0.656,0.057 0,0" fill="#007870"/>
    </g>
    <g transform="matrix(1 0 0 -1 1343.6 78.67)">
     <path d="m0 0-7.977-6.478s27.426-4.164 27.576-3.726c0.146 0.445 4.456 25.95 4.456 25.95l-9.443-4.852s-18.995 18.605-45.262 6.7c0 0 16.079 3.666 30.65-17.594" fill="#009f9a"/>
    </g>
    <g transform="matrix(1 0 0 -1 1312.9 61.076)">
     <path d="M 0,0 C -11.063,-4.703 -17.569,-14.867 -17.569,-14.867 L 2.913,-28.462 c 0,0 8.9,16.487 19.064,20.757 C 10.358,2.35 0,0 0,0" fill="#007870"/>
    </g>
    <g transform="matrix(1 0 0 -1 1345.8 74.871)">
     <path d="m0 0c-1.24 1.616-2.475 3.237-3.71 4.857-0.166 0.215-0.543 0.178-0.722 4e-3 -0.214-0.215-0.174-0.502-4e-3 -0.72 1.236-1.617 2.476-3.238 3.711-4.858 0.166-0.215 0.543-0.179 0.721-4e-3 0.215 0.215 0.17 0.502 4e-3 0.721" fill="#007870"/>
    </g>
    <g transform="matrix(1 0 0 -1 1344.2 69.654)">
     <path d="m0 0c-0.194 0.341-0.385 0.685-0.579 1.029-0.061 0.114-0.178 0.207-0.304 0.24-0.121 0.036-0.28 0.024-0.385-0.045-0.235-0.142-0.336-0.442-0.198-0.693 0.194-0.341 0.381-0.684 0.575-1.029 0.065-0.113 0.182-0.206 0.304-0.243 0.125-0.032 0.283-0.016 0.389 0.049 0.239 0.145 0.336 0.441 0.198 0.692" fill="#007870"/>
    </g>
    <g transform="matrix(1 0 0 -1 1345 81.109)">
     <path d="m0 0c0.19 0.166 0.381 0.328 0.571 0.489 0.045 0.049 0.081 0.102 0.106 0.167 0.028 0.057 0.044 0.121 0.044 0.186 4e-3 0.073-8e-3 0.134-0.04 0.194-0.021 0.069-0.057 0.126-0.106 0.175-0.097 0.089-0.222 0.153-0.352 0.149l-0.134-0.011c-0.089-0.025-0.17-0.07-0.235-0.134-0.19-0.162-0.38-0.328-0.571-0.49-0.049-0.045-0.085-0.102-0.105-0.163-0.033-0.06-0.049-0.121-0.049-0.19-4e-3 -0.068 0.012-0.134 0.04-0.194 0.021-0.07 0.057-0.126 0.11-0.174 0.097-0.09 0.219-0.154 0.352-0.15 0.045 3e-3 0.09 7e-3 0.13 0.016 0.093 0.021 0.17 0.065 0.239 0.13" fill="#007870"/>
    </g>
    <g transform="matrix(1 0 0 -1 1346.1 81.781)">
     <path d="m0 0c-0.32 0.575-1.211 0.077-0.891-0.498 0.32-0.571 1.211-0.073 0.891 0.498" fill="#007870"/>
    </g>
    <g transform="matrix(1 0 0 -1 1359.2 84.58)">
     <path d="m0 0c-1.568 0.069-3.131 0.138-4.699 0.207-0.656 0.028-0.677-0.993-0.02-1.021 1.567-0.069 3.131-0.138 4.698-0.203 0.657-0.032 0.673 0.989 0.021 1.017" fill="#007870"/>
    </g>
    <g transform="matrix(1 0 0 -1 1359 86.34)">
     <path d="m0 0c-0.267 0.077-0.535 0.15-0.802 0.227-0.065 0.02-0.13 0.024-0.195 0.012-0.068 0-0.133-0.02-0.194-0.056-0.065-0.033-0.109-0.078-0.15-0.134-0.044-0.049-0.076-0.11-0.093-0.174-0.028-0.126-0.02-0.271 0.049-0.386 0.073-0.117 0.174-0.206 0.303-0.242 0.272-0.077 0.535-0.15 0.807-0.227 0.061-0.02 0.129-0.025 0.19-0.012 0.069 0 0.138 0.02 0.194 0.06 0.065 0.029 0.114 0.074 0.15 0.13 0.045 0.049 0.077 0.11 0.094 0.174 0.028 0.126 0.024 0.272-0.049 0.385-0.069 0.118-0.174 0.207-0.304 0.243" fill="#007870"/>
    </g>
    <g transform="matrix(1 0 0 -1 1362.7 74.275)">
     <path d="M 0,0 C 0.571,1.588 0.907,3.253 1.004,4.937 1.021,5.213 0.77,5.452 0.502,5.456 0.218,5.46 0,5.233 -0.017,4.958 -0.109,3.357 -0.437,1.782 -0.98,0.275 -1.078,0.016 -0.883,-0.28 -0.628,-0.353 -0.349,-0.43 -0.093,-0.26 0,0" fill="#007870"/>
    </g>
    <g transform="matrix(1 0 0 -1 1361.3 72.354)">
     <path d="m0 0c0.016 0.068 0.037 0.134 0.057 0.202 0.02 0.061 0.024 0.13 0.012 0.194-4e-3 0.07-0.02 0.13-0.061 0.191-0.032 0.064-0.077 0.113-0.133 0.15-0.049 0.044-0.106 0.076-0.171 0.093-0.044 8e-3 -0.089 0.012-0.129 0.017-0.094 4e-3 -0.175-0.017-0.26-0.066-0.036-0.024-0.072-0.052-0.105-0.081-0.065-0.06-0.113-0.138-0.138-0.222-0.016-0.065-0.032-0.134-0.052-0.203-0.02-0.061-0.024-0.126-0.013-0.19 0-0.073 0.021-0.134 0.057-0.194 0.029-0.062 0.077-0.115 0.134-0.151 0.049-0.044 0.105-0.077 0.174-0.089 0.041-7e-3 0.081-0.016 0.126-0.02 0.089-4e-3 0.178 0.02 0.259 0.065 0.036 0.024 0.073 0.052 0.109 0.08 0.061 0.062 0.106 0.138 0.134 0.224" fill="#007870"/>
    </g>
    <g transform="matrix(1 0 0 -1 1357.4 69.698)">
     <path d="m0 0c-0.32 0.571-1.211 0.076-0.891-0.499 0.32-0.571 1.211-0.077 0.891 0.499" fill="#007870"/>
    </g>
    <g transform="matrix(1 0 0 -1 1361.6 79.184)">
     <path d="m0 0c0.097 0.228 0.198 0.45 0.3 0.677 0.036 0.056 0.056 0.117 0.06 0.182 0.016 0.065 0.013 0.13-4e-3 0.195-0.016 0.068-0.048 0.13-0.093 0.182-0.032 0.057-0.085 0.105-0.146 0.133-0.113 0.066-0.251 0.094-0.376 0.058-0.045-0.017-0.086-0.033-0.13-0.049-0.077-0.045-0.142-0.109-0.191-0.187-0.097-0.226-0.198-0.45-0.299-0.676-0.037-0.057-0.053-0.118-0.057-0.183-0.016-0.064-0.016-0.129 4e-3 -0.194 0.012-0.069 0.04-0.134 0.089-0.182 0.037-0.057 0.085-0.105 0.146-0.134 0.114-0.065 0.255-0.097 0.381-0.056 0.045 0.015 0.081 0.032 0.126 0.048 0.081 0.044 0.141 0.105 0.19 0.186" fill="#007870"/>
    </g>
    <g transform="matrix(1 0 0 -1 1362.3 81.689)">
     <path d="m0 0c-0.316 0.571-1.208 0.077-0.887-0.498 0.32-0.571 1.211-0.077 0.887 0.498" fill="#007870"/>
    </g>
    <g transform="matrix(1 0 0 -1 1300.4 104.7)">
     <path d="m0 0 9.589-3.679s-10.071 25.846-10.525 25.752c-0.461-0.089-24.715-9.078-24.715-9.078l8.917-5.765s-6.644-25.748 16.783-42.567c0 0-11.201 12.105-0.049 35.337" fill="#009f9a"/>
    </g>
    <g transform="matrix(1 0 0 -1 1300.5 140.03)">
     <path d="m0 0c9.597-7.243 21.652-7.806 21.652-7.806l1.56 24.529s-18.732-0.515-27.502 6.166c-2.913-15.086 4.29-22.889 4.29-22.889" fill="#007870"/>
    </g>
    <g transform="matrix(1 0 0 -1 1300.2 96.931)">
     <path d="m0 0c0.446-0.883 0.993-1.718 1.621-2.479 0.17-0.207 0.518-0.248 0.721-0.061 0.202 0.186 0.242 0.498 0.06 0.717-0.296 0.36-0.579 0.733-0.83 1.126-0.016 0.02-0.032 0.041-0.045 0.065 0.02-0.037 0.037-0.056 4e-3 -9e-3l-0.097 0.155c-0.057 0.093-0.117 0.194-0.17 0.292-0.121 0.206-0.235 0.417-0.34 0.631-0.126 0.24-0.434 0.374-0.681 0.24-0.239-0.126-0.368-0.422-0.243-0.677" fill="#007870"/>
    </g>
    <g transform="matrix(1 0 0 -1 1301.6 95.728)">
     <path d="m0 0c0.13-0.206 0.259-0.417 0.393-0.624 0.028-0.061 0.065-0.113 0.117-0.153 0.045-0.053 0.097-0.085 0.167-0.106 0.064-0.028 0.129-0.037 0.202-0.028 0.065-4e-3 0.13 0.012 0.195 0.044 0.109 0.061 0.214 0.158 0.255 0.284 0.012 0.044 0.02 0.089 0.028 0.134 8e-3 0.093-8e-3 0.178-0.048 0.262-0.126 0.208-0.256 0.418-0.385 0.624-0.028 0.061-0.069 0.114-0.122 0.155-0.045 0.049-0.101 0.085-0.166 0.105-0.065 0.029-0.134 0.036-0.202 0.024-0.065 5e-3 -0.13-0.012-0.191-0.044-0.118-0.061-0.219-0.155-0.259-0.28-0.012-0.048-0.021-0.089-0.033-0.137-8e-3 -0.09 8e-3 -0.175 0.049-0.26" fill="#007870"/>
    </g>
    <g transform="matrix(1 0 0 -1 1299.6 94.035)">
     <path d="m0 0c0.044-0.053 0.085-0.105 0.133-0.158 0.041-0.053 0.094-0.093 0.155-0.117 0.056-0.04 0.121-0.061 0.19-0.061 0.073-9e-3 0.138 0 0.198 0.024 0.069 0.016 0.122 0.048 0.175 0.093 0.028 0.032 0.06 0.061 0.085 0.098 0.056 0.072 0.085 0.157 0.093 0.247 0 0.044-5e-3 0.093-5e-3 0.138-0.02 0.085-0.056 0.166-0.113 0.234-0.044 0.053-0.089 0.106-0.138 0.158-0.036 0.053-0.088 0.094-0.153 0.117-0.053 0.041-0.118 0.062-0.191 0.066-0.069 4e-3 -0.134 0-0.194-0.028-0.069-0.017-0.126-0.049-0.174-0.094-0.029-0.032-0.061-0.061-0.09-0.093-0.052-0.077-0.081-0.162-0.089-0.251 0-0.045 4e-3 -0.094 8e-3 -0.138 0.017-0.085 0.049-0.166 0.11-0.235" fill="#007870"/>
    </g>
    <g transform="matrix(1 0 0 -1 1295.5 109.76)">
     <path d="m0 0c-0.535-1.151-0.919-2.354-1.175-3.594-0.056-0.271 0.215-0.53 0.462-0.551 0.3-0.024 0.494 0.195 0.551 0.466 0.235 1.134 0.624 2.265 1.114 3.326 0.122 0.248-0.053 0.563-0.3 0.652-0.276 0.101-0.539-0.048-0.652-0.299" fill="#007870"/>
    </g>
    <g transform="matrix(1 0 0 -1 1293.3 109.87)">
     <path d="m0 0-0.239-1.013c-0.024-0.069-0.032-0.133-0.024-0.203 0-0.068 0.012-0.133 0.04-0.194 0.057-0.11 0.166-0.219 0.288-0.259 0.125-0.041 0.271-0.045 0.393 0.021 0.113 0.056 0.23 0.153 0.263 0.283l0.235 1.012c0.028 0.065 0.037 0.134 0.024 0.203 4e-3 0.065-0.012 0.133-0.044 0.194-0.049 0.11-0.162 0.219-0.28 0.26-0.13 0.036-0.275 0.045-0.397-0.021-0.109-0.056-0.227-0.158-0.259-0.283" fill="#007870"/>
    </g>
    <g transform="matrix(1 0 0 -1 1293.3 116.52)">
     <path d="m0 0c-0.227-2.179-0.093-4.387 0.389-6.525 0.141-0.641 1.146-0.458 1 0.185-0.466 2.055-0.591 4.157-0.372 6.255 0.068 0.652-0.944 0.737-1.017 0.085" fill="#007870"/>
    </g>
    <g transform="matrix(1 0 0 -1 1290.5 117.75)">
     <path d="m0 0c0.073-0.446 0.142-0.896 0.219-1.346 0.036-0.258 0.328-0.466 0.591-0.405 0.276 0.062 0.454 0.313 0.409 0.596-0.073 0.446-0.141 0.895-0.219 1.341-0.04 0.263-0.328 0.469-0.591 0.405-0.275-0.061-0.453-0.312-0.409-0.591" fill="#007870"/>
    </g>
    <g transform="matrix(1 0 0 -1 1259.1 103.9)">
     <path d="m0 0c0-1.073-0.871-1.944-1.94-1.944-1.074 0-1.945 0.871-1.945 1.944s0.871 1.94 1.945 1.94c1.069 0 1.94-0.867 1.94-1.94" fill="#007870"/>
    </g>
    <g transform="matrix(1 0 0 -1 1311.9 32.648)">
     <path d="m0 0c0-1.073-0.871-1.944-1.94-1.944-1.074 0-1.945 0.871-1.945 1.944s0.871 1.94 1.945 1.94c1.069 0 1.94-0.867 1.94-1.94" fill="#007870"/>
    </g>
    <g transform="matrix(1 0 0 -1 1396.3 148.35)">
     <path d="m0 0c0-1.073-0.871-1.944-1.94-1.944-1.078 0-1.949 0.871-1.949 1.944 0 1.074 0.871 1.94 1.949 1.94 1.069 0 1.94-0.866 1.94-1.94" fill="#007870"/>
    </g>
    <g transform="matrix(1 0 0 -1 1394.3 59.04)">
     <path d="m0 0c0-1.073-0.871-1.944-1.944-1.944-1.074 0-1.945 0.871-1.945 1.944s0.871 1.94 1.945 1.94c1.073 0 1.944-0.867 1.944-1.94" fill="#007870"/>
    </g>
    <g transform="matrix(1 0 0 -1 1311.5 174.91)">
     <path d="m0 0c0-1.073-0.871-1.944-1.945-1.944-1.073 0-1.944 0.871-1.944 1.944s0.871 1.94 1.944 1.94c1.074 0 1.945-0.867 1.945-1.94" fill="#007870"/>
    </g>
   </g>
  </g>
 </g>
</svg>
