<?xml version="1.0" encoding="UTF-8"?>
<svg version="1.1" xmlns="http://www.w3.org/2000/svg" width="225" height="225">
<path d="M0 0 C3.9285121 2.94424436 6.2584475 6.74018625 7.79296875 11.34375 C8.58409161 17.70663814 8.04586843 22.37482858 4.29296875 27.65234375 C0.92899705 31.44557225 -3.11666527 33.97193082 -8.1875 34.58203125 C-15.08426368 34.81395782 -19.84646434 33.32455135 -25.0390625 28.71875 C-29.26089623 23.97289475 -30.13422628 19.59173338 -29.78515625 13.31640625 C-28.67247913 7.59514078 -25.94105285 3.45874784 -21.34375 -0.09765625 C-14.3385454 -4.12670178 -6.99211421 -3.90776842 0 0 Z M-17.08203125 9.40625 C-19.44812032 12.22901062 -19.44812032 12.22901062 -19.83203125 15.84375 C-19.03586886 20.30225936 -17.89889667 21.75158917 -14.20703125 24.34375 C-10.20895717 24.97502485 -8.1996714 25.02292484 -4.83203125 22.71875 C-2.82197082 19.78096938 -2.27969146 17.9041004 -2.20703125 14.34375 C-3.81114973 10.81468933 -4.94862487 9.51602092 -8.20703125 7.34375 C-12.2432493 6.72954291 -13.72814166 7.00019877 -17.08203125 9.40625 Z " fill="#F2FDFC" transform="translate(181.20703125,89.65625)"/>
<path d="M0 0 C5.04714221 3.01505312 8.86966463 6.34727515 10.7734375 12.05859375 C11.47109955 19.24108175 11.16879954 24.23770889 6.7734375 30.05859375 C1.4414871 34.99064787 -2.60050293 36.47684552 -9.76171875 36.30859375 C-15.71196703 35.70508204 -19.43974401 32.45949091 -23.2265625 28.05859375 C-26.6263617 23.01751217 -27.34981558 17.97621972 -26.2265625 12.05859375 C-23.50541176 6.5975902 -19.49301079 2.98439836 -14.2265625 0.05859375 C-9.45849144 -1.53076327 -4.72202224 -1.99650414 0 0 Z M-15.5390625 12.74609375 C-16.55752515 16.17183174 -16.08702232 18.61675449 -15.2265625 22.05859375 C-13.74663094 24.62198064 -13.74663094 24.62198064 -11.2265625 26.05859375 C-6.81888113 26.7798507 -4.96718762 26.57860713 -1.2890625 23.99609375 C1.00878122 21.16252915 1.00878122 21.16252915 1.3984375 17.55859375 C0.60740818 13.12882955 -0.59131035 11.66649203 -4.2265625 9.05859375 C-8.90296517 8.39053623 -12.55335241 8.90732363 -15.5390625 12.74609375 Z " fill="#F1FDFC" transform="translate(103.2265625,87.94140625)"/>
<path d="M0 0 C0.94230469 -0.02900391 1.88460937 -0.05800781 2.85546875 -0.08789062 C8.69835969 -0.14115681 12.14667564 0.34286112 16.75 4.3125 C20.46345928 8.23226257 22.69592697 11.97198865 22.78515625 17.484375 C22.32949688 24.10810632 20.16785002 28.18248927 15.125 32.625 C10.17015309 36.14554912 5.67653457 35.49626793 -0.25 35.5 C-1.27351563 35.51224609 -2.29703125 35.52449219 -3.3515625 35.53710938 C-4.32867187 35.53904297 -5.30578125 35.54097656 -6.3125 35.54296875 C-7.21097656 35.54707764 -8.10945313 35.55118652 -9.03515625 35.55541992 C-11.25 35.3125 -11.25 35.3125 -13.25 33.3125 C-13.5859375 30.37890625 -13.5859375 30.37890625 -13.625 26.875 C-13.65335937 25.72128906 -13.68171875 24.56757812 -13.7109375 23.37890625 C-13.25 20.3125 -13.25 20.3125 -11.39453125 18.35546875 C-9.25 17.3125 -9.25 17.3125 -6.5625 18.0625 C-4.25 19.3125 -4.25 19.3125 -3.25 20.3125 C-3.20919217 22.31208364 -3.20745644 24.31295254 -3.25 26.3125 C-1.1229989 26.05785902 1.00162215 25.78327058 3.125 25.5 C4.90003906 25.27376953 4.90003906 25.27376953 6.7109375 25.04296875 C10.04532084 24.60550666 10.04532084 24.60550666 11.75 21.3125 C12.27264915 16.60407542 12.27264915 16.60407542 10.4375 12.4375 C5.8461542 9.3766028 0.13951259 10.00575463 -5.17773438 9.8828125 C-7.20898943 9.79868805 -9.23273458 9.5649168 -11.25 9.3125 C-13.25 6.3125 -13.25 6.3125 -13 3.6875 C-12.7525 2.90375 -12.505 2.12 -12.25 1.3125 C-8.52641513 -0.54929243 -4.09840608 0.04137018 0 0 Z " fill="#F3FDFC" transform="translate(128.25,87.6875)"/>
<path d="M0 0 C5.68777118 3.11217668 8.92681629 6.81112002 11.3125 12.8125 C11.71179476 16.21801666 11.68699662 19.57530657 11.625 23 C11.62822266 23.90169922 11.63144531 24.80339844 11.63476562 25.73242188 C11.58006266 32.411156 11.58006266 32.411156 9.3125 35.8125 C6.9693787 35.55688677 4.63406597 35.21979228 2.3125 34.8125 C1.20703508 32.60157017 1.13466738 31.27207455 1.03125 28.8203125 C0.99386719 28.03269531 0.95648438 27.24507812 0.91796875 26.43359375 C0.86576172 25.19802734 0.86576172 25.19802734 0.8125 23.9375 C0.74329135 22.31494176 0.67049447 20.69253177 0.59375 19.0703125 C0.56345703 18.3498877 0.53316406 17.62946289 0.50195312 16.88720703 C0.30919462 14.77630265 -0.12008805 12.85185206 -0.6875 10.8125 C-2.10293415 10.61591192 -3.51994031 10.43062454 -4.9375 10.25 C-5.72640625 10.14558594 -6.5153125 10.04117188 -7.328125 9.93359375 C-9.69282874 9.81222651 -11.4386037 10.11616743 -13.6875 10.8125 C-14.46479422 13.59705374 -14.83686225 16.14851884 -14.93359375 19.03515625 C-14.96646484 19.82083984 -14.99933594 20.60652344 -15.03320312 21.41601562 C-15.09454141 23.05909872 -15.15181492 24.70233845 -15.20507812 26.34570312 C-15.23923828 27.13009766 -15.27339844 27.91449219 -15.30859375 28.72265625 C-15.3336499 29.43558838 -15.35870605 30.14852051 -15.38452148 30.88305664 C-15.6875 32.8125 -15.6875 32.8125 -17.6875 35.8125 C-20.6875 36.125 -20.6875 36.125 -23.6875 35.8125 C-27.01633256 32.48366744 -26.05638772 28.14502862 -26.0625 23.625 C-26.08699219 22.69107422 -26.11148438 21.75714844 -26.13671875 20.79492188 C-26.16650174 13.74131689 -24.98992416 9.42039839 -20.125 4.10546875 C-13.34571293 -1.10795038 -8.3402539 -2.68584448 0 0 Z " fill="#F0FDFC" transform="translate(64.6875,88.1875)"/>
<path d="M0 0 C2.4375 0.75 2.4375 0.75 4.4375 2.75 C4.0625 5.875 4.0625 5.875 3.4375 8.75 C1.1275 9.08 -1.1825 9.41 -3.5625 9.75 C-5.125 7.4375 -5.125 7.4375 -6.5625 4.75 C-5.30664198 0.98242594 -4.09480498 -0.39949317 0 0 Z M-2.5625 2.75 C-2.8925 3.74 -3.2225 4.73 -3.5625 5.75 C-3.2325 6.41 -2.9025 7.07 -2.5625 7.75 C-1.2425 7.75 0.0775 7.75 1.4375 7.75 C1.4375 6.43 1.4375 5.11 1.4375 3.75 C0.1175 3.42 -1.2025 3.09 -2.5625 2.75 Z " fill="#CFFEFD" transform="translate(183.5625,132.25)"/>
<path d="M0 0 C0.33 2.64 0.66 5.28 1 8 C-1.31 8.33 -3.62 8.66 -6 9 C-7.625 6.75 -7.625 6.75 -9 4 C-8.3125 1.75 -8.3125 1.75 -7 0 C-4.3333581 -1.33332095 -2.83319697 -0.67102033 0 0 Z M-6 2 C-5.67 3.65 -5.34 5.3 -5 7 C-4.01 7 -3.02 7 -2 7 C-2 6.34 -2 5.68 -2 5 C-2.66 4.67 -3.32 4.34 -4 4 C-4 3.34 -4 2.68 -4 2 C-4.66 2 -5.32 2 -6 2 Z " fill="#C4FDFE" transform="translate(148,133)"/>
<path d="M0 0 C2.60664332 1.30332166 3.55959485 2.46214331 5 5 C4.6875 8.25 4.6875 8.25 4 11 C0.625 11.625 0.625 11.625 -3 12 C-3.66 11.34 -4.32 10.68 -5 10 C-4.77181974 3.72504278 -4.77181974 3.72504278 -1.9375 1.0625 C-0.9784375 0.5365625 -0.9784375 0.5365625 0 0 Z M-3 5 C-2.67 6.65 -2.34 8.3 -2 10 C-0.68 9.67 0.64 9.34 2 9 C1.67 7.35 1.34 5.7 1 4 C-1.0745356 3.8509288 -1.0745356 3.8509288 -3 5 Z " fill="#C3FDFE" transform="translate(129,130)"/>
<path d="M0 0 C0.1875 2.875 0.1875 2.875 0 6 C-3 8 -3 8 -5.6875 7.625 C-6.450625 7.41875 -7.21375 7.2125 -8 7 C-8.33 5.35 -8.66 3.7 -9 2 C-3.375 -1.125 -3.375 -1.125 0 0 Z " fill="#E2FDFC" transform="translate(39,89)"/>
<path d="M0 0 C0 3 0 3 -0.98046875 4.91015625 C-2.71706289 8.46984156 -2.47727211 12.12648719 -2 16 C-0.63002843 18.87146994 -0.63002843 18.87146994 1 21 C1 21.66 1 22.32 1 23 C2.65 23.33 4.3 23.66 6 24 C6 24.99 6 25.98 6 27 C7.32 27.33 8.64 27.66 10 28 C9.01 28.33 8.02 28.66 7 29 C2.11203964 26.44975981 -1.83229064 23.17482957 -4 18 C-4.84788874 12.50715555 -5.16956787 7.03275296 -2 2.25 C-1.34 1.5075 -0.68 0.765 0 0 Z " fill="#DDFCFD" transform="translate(156,94)"/>
<path d="M0 0 C1.4540625 0.0309375 1.4540625 0.0309375 2.9375 0.0625 C2.751875 0.68125 2.56625 1.3 2.375 1.9375 C1.70063824 4.10410178 1.70063824 4.10410178 2.9375 6.0625 C1.6175 6.3925 0.2975 6.7225 -1.0625 7.0625 C0.2575 7.3925 1.5775 7.7225 2.9375 8.0625 C2.9375 8.7225 2.9375 9.3825 2.9375 10.0625 C0.6275 10.0625 -1.6825 10.0625 -4.0625 10.0625 C-4.08939216 8.58343108 -4.10884621 7.10422517 -4.125 5.625 C-4.13660156 4.80128906 -4.14820313 3.97757813 -4.16015625 3.12890625 C-4.00103255 -0.23815127 -3.43619093 0.07012635 0 0 Z " fill="#C3FBFB" transform="translate(57.0625,131.9375)"/>
<path d="M0 0 C3 1 3 1 5 4 C5.33 2.68 5.66 1.36 6 0 C6.66 0 7.32 0 8 0 C8 3.3 8 6.6 8 10 C5 9 5 9 3 6 C2.67 7.32 2.34 8.64 2 10 C1.34 10 0.68 10 0 10 C0 6.7 0 3.4 0 0 Z " fill="#C2FEFE" transform="translate(81,132)"/>
<path d="M0 0 C1.45116211 -0.0309375 1.45116211 -0.0309375 2.93164062 -0.0625 C4.32479492 -0.07023437 4.32479492 -0.07023437 5.74609375 -0.078125 C7.02311157 -0.09214355 7.02311157 -0.09214355 8.32592773 -0.10644531 C11.01315986 0.32182222 11.87751681 1.17079044 13.5625 3.25 C11.89638095 3.292721 10.22867115 3.29063832 8.5625 3.25 C8.2325 2.92 7.9025 2.59 7.5625 2.25 C6.14679877 2.16348389 4.726905 2.14295096 3.30859375 2.15234375 C2.02758789 2.15717773 2.02758789 2.15717773 0.72070312 2.16210938 C-0.17712891 2.17048828 -1.07496094 2.17886719 -2 2.1875 C-2.90169922 2.19201172 -3.80339844 2.19652344 -4.73242188 2.20117188 C-6.96751314 2.21299775 -9.20247437 2.2294778 -11.4375 2.25 C-11.1075 4.23 -10.7775 6.21 -10.4375 8.25 C-7.7975 8.25 -5.1575 8.25 -2.4375 8.25 C-2.4375 8.58 -2.4375 8.91 -2.4375 9.25 C-3.89492463 9.33096803 -5.35362807 9.38917774 -6.8125 9.4375 C-7.62460938 9.47230469 -8.43671875 9.50710937 -9.2734375 9.54296875 C-9.98757812 9.44628906 -10.70171875 9.34960938 -11.4375 9.25 C-13.4375 6.25 -13.4375 6.25 -13.1875 3.625 C-12.94 2.84125 -12.6925 2.0575 -12.4375 1.25 C-8.67595432 -0.63077284 -4.13926726 0.02197355 0 0 Z " fill="#D5FEFE" transform="translate(128.4375,87.75)"/>
<path d="M0 0 C2.375 0.6875 2.375 0.6875 3.375 1.6875 C3.5625 4.625 3.5625 4.625 3.375 7.6875 C1.375 9.6875 1.375 9.6875 -1.125 9.9375 C-3.625 9.6875 -3.625 9.6875 -5.625 7.6875 C-5.9375 4.6875 -5.9375 4.6875 -5.625 1.6875 C-2.625 -0.3125 -2.625 -0.3125 0 0 Z M-2.625 1.6875 C-2.955 3.3375 -3.285 4.9875 -3.625 6.6875 C-2.305 7.0175 -0.985 7.3475 0.375 7.6875 C0.705 6.0375 1.035 4.3875 1.375 2.6875 C0.055 2.3575 -1.265 2.0275 -2.625 1.6875 Z " fill="#C5FEFE" transform="translate(101.625,132.3125)"/>
<path d="M0 0 C4.875 1.875 4.875 1.875 6 3 C6.04080783 4.99958364 6.04254356 7.00045254 6 9 C8.12560437 8.69163768 10.25047065 8.37818386 12.375 8.0625 C13.55835938 7.88847656 14.74171875 7.71445313 15.9609375 7.53515625 C18.90702381 7.16537214 18.90702381 7.16537214 21 6 C20.34 7.32 19.68 8.64 19 10 C14.05 10 9.1 10 4 10 C3.67 8.02 3.34 6.04 3 4 C0.53744315 2.54708727 0.53744315 2.54708727 -2 2 C-1.34 1.34 -0.68 0.68 0 0 Z " fill="#DAFEFE" transform="translate(119,105)"/>
<path d="M0 0 C0 0.66 0 1.32 0 2 C-3.75 3.125 -3.75 3.125 -6 2 C-5.67 3.32 -5.34 4.64 -5 6 C-3.35 6 -1.7 6 0 6 C-0.33 6.99 -0.66 7.98 -1 9 C-3.3125 9.3125 -3.3125 9.3125 -6 9 C-7.9375 6.75 -7.9375 6.75 -9 4 C-8.3125 1.75 -8.3125 1.75 -7 0 C-4.3333581 -1.33332095 -2.83319697 -0.67102033 0 0 Z " fill="#CCFEFE" transform="translate(172,133)"/>
<path d="M0 0 C0.33 0.66 0.66 1.32 1 2 C-0.65 2 -2.3 2 -4 2 C-4.33 3.65 -4.66 5.3 -5 7 C-3.35 6.67 -1.7 6.34 0 6 C0.33 6.66 0.66 7.32 1 8 C-1.31 8.33 -3.62 8.66 -6 9 C-8 6 -8 6 -7.75 2.875 C-7.37875 1.451875 -7.37875 1.451875 -7 0 C-4.30234372 -1.34882814 -2.84835666 -0.80338265 0 0 Z " fill="#BCFEFF" transform="translate(74,133)"/>
<path d="M0 0 C2.31 0 4.62 0 7 0 C7.33 0.66 7.66 1.32 8 2 C7.01 2 6.02 2 5 2 C5 4.64 5 7.28 5 10 C4.34 10 3.68 10 3 10 C2.87625 8.865625 2.7525 7.73125 2.625 6.5625 C2.41875 5.386875 2.2125 4.21125 2 3 C1.34 2.67 0.68 2.34 0 2 C0 1.34 0 0.68 0 0 Z " fill="#CFFEFE" transform="translate(39,132)"/>
<path d="M0 0 C0.99 0 1.98 0 3 0 C3 2.64 3 5.28 3 8 C4.65 8 6.3 8 8 8 C8 8.66 8 9.32 8 10 C5.69 10 3.38 10 1 10 C-0.60725635 6.78548731 -0.05748185 3.56387464 0 0 Z " fill="#CEFEFE" transform="translate(111,132)"/>
<path d="M0 0 C0.66 1.32 1.32 2.64 2 4 C0 6 0 6 -2.5 6.25 C-5 6 -5 6 -7 4 C-6.67 3.01 -6.34 2.02 -6 1 C-5.34 1.33 -4.68 1.66 -4 2 C-4 2.66 -4 3.32 -4 4 C-2.68 4 -1.36 4 0 4 C0 2.68 0 1.36 0 0 Z " fill="#BCFFFE" transform="translate(185,136)"/>
<path d="M0 0 C0.33 0 0.66 0 1 0 C1 3.3 1 6.6 1 10 C0.34 10 -0.32 10 -1 10 C-1.02689216 8.52093108 -1.04634621 7.04172517 -1.0625 5.5625 C-1.07410156 4.73878906 -1.08570313 3.91507813 -1.09765625 3.06640625 C-1 1 -1 1 0 0 Z " fill="#ADFEFF" transform="translate(156,132)"/>
<path d="M0 0 C0 0.66 0 1.32 0 2 C-1.8125 2.6875 -1.8125 2.6875 -4 3 C-5.75 1.5625 -5.75 1.5625 -7 0 C-4.3333581 -1.33332095 -2.83319697 -0.67102033 0 0 Z " fill="#B2FEFE" transform="translate(172,133)"/>
<path d="" fill="#FFFFFF" transform="translate(0,0)"/>
<path d="" fill="#FFFFFF" transform="translate(0,0)"/>
</svg>
