<svg xmlns="http://www.w3.org/2000/svg" viewBox="0 0 262.13 71.48"><defs><style>.cls-1{fill:#e2831a;}.cls-2{fill:#002554;}.cls-3{fill:#00b4dc;}</style></defs><title>logo</title><g id="Capa_2" data-name="Capa 2"><g id="Capa_1-2" data-name="Capa 1"><rect class="cls-1" x="0.11" y="0.03" width="3.08" height="12.97"/><rect class="cls-1" y="51.93" width="3.16" height="12.97"/><polygon class="cls-1" points="16.15 24.4 16.23 13.01 13.08 13.01 13.08 25.98 13.07 25.98 13.08 25.98 13.08 25.98 13.08 25.98 19.57 32.38 13.1 38.92 13.07 38.93 13.07 42.32 13.08 42.32 13.08 51.93 16.18 51.93 16.18 40.22 23.95 32.29 16.15 24.4"/><rect class="cls-2" x="9.55" y="0.03" width="12.97" height="12.97"/><rect class="cls-2" x="9.55" y="51.93" width="12.97" height="12.97"/><polygon class="cls-2" points="35.5 25.98 35.5 13.01 22.53 13.01 22.53 25.98 22.53 25.98 22.53 25.98 22.53 25.98 22.53 25.98 35.5 25.98 35.5 38.95 22.55 38.92 22.53 38.93 22.53 42.32 22.53 42.32 22.53 51.93 35.5 51.93 35.5 38.95 35.5 38.95 37.09 38.95 48.48 38.95 48.48 25.98 35.5 25.98"/><rect class="cls-3" x="3.16" y="0.03" width="6.39" height="12.97"/><rect class="cls-3" x="3.16" y="51.93" width="6.39" height="12.97"/><polygon class="cls-3" points="22.5 25.98 22.5 13.01 16.14 13.01 16.12 24.4 23.91 32.29 16.15 40.22 16.14 42.32 16.14 42.32 16.14 51.93 22.53 51.93 22.54 38.95 35.47 38.95 35.51 25.98 22.5 25.98"/><path class="cls-2" d="M71.38,18.84a7.87,7.87,0,0,1-2,4.63A5.79,5.79,0,0,1,65,25.18a7.5,7.5,0,0,1-3.5-.77,6.59,6.59,0,0,1-2.39-2.12,9.62,9.62,0,0,1-1.38-3.05,14.63,14.63,0,0,1-.44-3.61,15.73,15.73,0,0,1,.44-3.75,9.73,9.73,0,0,1,1.36-3.11,6.49,6.49,0,0,1,2.39-2.14A7.37,7.37,0,0,1,65,5.84a6.43,6.43,0,0,1,4.11,1.42,5.25,5.25,0,0,1,2,3.5l0,.19h6.66l0-.25a12.08,12.08,0,0,0-1.4-4.54,11.14,11.14,0,0,0-2.83-3.37A12.44,12.44,0,0,0,69.63.71a16,16,0,0,0-10.73.47,13.1,13.1,0,0,0-4.61,3.33,14.77,14.77,0,0,0-2.89,5,18.52,18.52,0,0,0-1,6.12,17.9,17.9,0,0,0,1,6,14.32,14.32,0,0,0,2.89,4.92,13.25,13.25,0,0,0,4.61,3.29A15.26,15.26,0,0,0,65,31a14.34,14.34,0,0,0,5-.85,12,12,0,0,0,6.79-6.31,15.15,15.15,0,0,0,1.29-5l0-.24H71.41Z"/><path class="cls-2" d="M101,28.21a19.51,19.51,0,0,1-.18-2.81v-11a5.47,5.47,0,0,0-.86-3.13,5.75,5.75,0,0,0-2.23-1.94,10.58,10.58,0,0,0-3-.92,23.36,23.36,0,0,0-3.4-.24,17.81,17.81,0,0,0-3.63.35,10.12,10.12,0,0,0-3.17,1.21A6.81,6.81,0,0,0,82.13,12a7.33,7.33,0,0,0-1,3.44v.23h6.24l0-.2a3.13,3.13,0,0,1,1.06-2.28A4.12,4.12,0,0,1,91,12.5a5.41,5.41,0,0,1,2.67.54,2.25,2.25,0,0,1,.87,2.1,1.5,1.5,0,0,1-1,1.55,17.6,17.6,0,0,1-3.75.77c-.71.08-1.35.16-1.89.24a19.25,19.25,0,0,0-2.81.58,7.83,7.83,0,0,0-2.29,1.1,5.09,5.09,0,0,0-1.67,2,6.83,6.83,0,0,0-.61,3,5.94,5.94,0,0,0,2.08,4.89,8.25,8.25,0,0,0,5.33,1.67,12.41,12.41,0,0,0,4-.65,8.22,8.22,0,0,0,2.92-1.71,8.61,8.61,0,0,0,.38,1.63l0,.16h6.43l-.2-.34A5.06,5.06,0,0,1,101,28.21Zm-6.43-8v1.75a8.76,8.76,0,0,1-.12,1.41,4.53,4.53,0,0,1-.55,1.49,3.24,3.24,0,0,1-1.34,1.24,5.28,5.28,0,0,1-2.47.5A4.74,4.74,0,0,1,87.56,26a2,2,0,0,1-.86-1.91,2.25,2.25,0,0,1,.81-1.93,6.09,6.09,0,0,1,2.44-1L91.34,21c.91-.14,1.64-.27,2.17-.41A4,4,0,0,0,94.52,20.18Z"/><path class="cls-2" d="M106.38,25.32a5.85,5.85,0,0,0,.53,2.62,4,4,0,0,0,1.52,1.64,6.25,6.25,0,0,0,2.16.78,15.31,15.31,0,0,0,2.67.21,21.8,21.8,0,0,0,3.43-.21l.18,0v-5l-.26.05a8.69,8.69,0,0,1-1.75.16c-1.15,0-1.62-.23-1.81-.42s-.43-.67-.43-1.81V13.07h4.25V8.75h-4.25V2.41h-6.24V8.75h-3.52v4.32h3.52Z"/><path class="cls-2" d="M133,30.17l.05.16h6.44l-.2-.34a5,5,0,0,1-.53-1.78,19.51,19.51,0,0,1-.18-2.81v-11a5.46,5.46,0,0,0-.85-3.13,5.89,5.89,0,0,0-2.23-1.94,10.68,10.68,0,0,0-3-.92,23.4,23.4,0,0,0-3.41-.24,17.65,17.65,0,0,0-3.62.35,9.94,9.94,0,0,0-3.17,1.21A6.84,6.84,0,0,0,120,12a7.21,7.21,0,0,0-1,3.44l0,.23h6.24l0-.2a3.13,3.13,0,0,1,1.06-2.28,4.15,4.15,0,0,1,2.57-.71,5.41,5.41,0,0,1,2.67.54,2.27,2.27,0,0,1,.87,2.1,1.49,1.49,0,0,1-1,1.55,17.6,17.6,0,0,1-3.75.77c-.7.08-1.34.16-1.88.24a19.25,19.25,0,0,0-2.81.58,7.83,7.83,0,0,0-2.29,1.1,5.09,5.09,0,0,0-1.67,2,6.68,6.68,0,0,0-.62,3,5.94,5.94,0,0,0,2.09,4.89,8.23,8.23,0,0,0,5.33,1.67,12.41,12.41,0,0,0,4-.65,8.09,8.09,0,0,0,2.91-1.71A9.46,9.46,0,0,0,133,30.17Zm-.66-10v1.75a8.76,8.76,0,0,1-.12,1.41,4.53,4.53,0,0,1-.55,1.49,3.31,3.31,0,0,1-1.34,1.24,5.28,5.28,0,0,1-2.47.5,4.72,4.72,0,0,1-2.48-.56,2,2,0,0,1-.86-1.91,2.22,2.22,0,0,1,.81-1.93,6,6,0,0,1,2.44-1L129.2,21c.9-.14,1.63-.27,2.16-.41A4,4,0,0,0,132.38,20.18Z"/><path class="cls-2" d="M167.63,8.18a7.18,7.18,0,0,0-3.83,1,9,9,0,0,0-2.51,2.27,5.63,5.63,0,0,0-2.36-2.42,8.1,8.1,0,0,0-3.85-.88,7.84,7.84,0,0,0-3.76.92,8.32,8.32,0,0,0-2.56,2.18V8.75h-5.92V30.33h6.25V17.84a5.84,5.84,0,0,1,.41-2.32,4,4,0,0,1,1-1.44,3.57,3.57,0,0,1,1.19-.69,3.8,3.8,0,0,1,1.12-.19,3.68,3.68,0,0,1,1.84.38,2.36,2.36,0,0,1,1,1,4,4,0,0,1,.41,1.47c.05.57.08,1.3.08,2.19V30.33h6.24v-12a12.39,12.39,0,0,1,.16-2,5.18,5.18,0,0,1,.55-1.58,2.8,2.8,0,0,1,1.11-1.1A3.64,3.64,0,0,1,166,13.2a4,4,0,0,1,1.82.36,2.26,2.26,0,0,1,1,1,4.48,4.48,0,0,1,.42,1.48,17.66,17.66,0,0,1,.1,2.1v12.2h6.25V16c0-2.67-.72-4.66-2.14-5.91A8.54,8.54,0,0,0,167.63,8.18Z"/><path class="cls-2" d="M199.31,28.21a19.51,19.51,0,0,1-.18-2.81v-11a5.47,5.47,0,0,0-.86-3.13A5.75,5.75,0,0,0,196,9.34a10.48,10.48,0,0,0-3-.92,23.36,23.36,0,0,0-3.4-.24,17.65,17.65,0,0,0-3.62.35,10.08,10.08,0,0,0-3.18,1.21A6.81,6.81,0,0,0,180.49,12a7.33,7.33,0,0,0-1,3.44v.23h6.24l0-.2a3.13,3.13,0,0,1,1.06-2.28,4.12,4.12,0,0,1,2.56-.71A5.38,5.38,0,0,1,192,13a2.25,2.25,0,0,1,.87,2.1,1.5,1.5,0,0,1-1,1.55,17.6,17.6,0,0,1-3.75.77c-.71.08-1.35.16-1.88.24a19.12,19.12,0,0,0-2.82.58,7.83,7.83,0,0,0-2.29,1.1,5.09,5.09,0,0,0-1.67,2,6.83,6.83,0,0,0-.61,3,5.94,5.94,0,0,0,2.08,4.89,8.25,8.25,0,0,0,5.33,1.67,12.41,12.41,0,0,0,4-.65,8.22,8.22,0,0,0,2.92-1.71,8.61,8.61,0,0,0,.38,1.63l0,.16H200l-.2-.34A5.06,5.06,0,0,1,199.31,28.21Zm-6.43-8v1.75a8.76,8.76,0,0,1-.12,1.41,4.5,4.5,0,0,1-.54,1.49,3.34,3.34,0,0,1-1.35,1.24,5.28,5.28,0,0,1-2.47.5,4.74,4.74,0,0,1-2.48-.56,2,2,0,0,1-.86-1.91,2.23,2.23,0,0,1,.82-1.93,6,6,0,0,1,2.43-1L189.7,21c.91-.14,1.64-.27,2.17-.41A4,4,0,0,0,192.88,20.18Z"/><path class="cls-2" d="M215.75,8.18a7.53,7.53,0,0,0-4.17,1.3,7.29,7.29,0,0,0-2.44,2.6V8.75h-6V30.33h6.25V20.58a8,8,0,0,1,1.33-4.8A4.86,4.86,0,0,1,214.93,14a10.56,10.56,0,0,1,1.1.06,9.29,9.29,0,0,1,.94.14l.27.06V8.44l-.15,0A4.32,4.32,0,0,0,215.75,8.18Z"/><path class="cls-2" d="M233,22a5,5,0,0,1-1.41,3,4.13,4.13,0,0,1-3,1.08,3.91,3.91,0,0,1-2.13-.56A4.16,4.16,0,0,1,225,24.05a7.37,7.37,0,0,1-.8-2.07,10.62,10.62,0,0,1-.26-2.34,11.36,11.36,0,0,1,.26-2.39,7.86,7.86,0,0,1,.82-2.14,4.36,4.36,0,0,1,1.48-1.54,4,4,0,0,1,2.17-.58,3.66,3.66,0,0,1,4.07,3.45l0,.19h6.11l0-.23a7.8,7.8,0,0,0-3.17-6.1,11.54,11.54,0,0,0-7-2.12,12,12,0,0,0-4.64.85,9.51,9.51,0,0,0-3.5,2.45,10.86,10.86,0,0,0-2.15,3.73,14.45,14.45,0,0,0-.72,4.63,12.43,12.43,0,0,0,.77,4.44,10.12,10.12,0,0,0,2.23,3.51,10.28,10.28,0,0,0,3.49,2.29,11.72,11.72,0,0,0,4.4.82,10.82,10.82,0,0,0,7.07-2.3A9.77,9.77,0,0,0,239,22l0-.25h-6Z"/><path class="cls-2" d="M261.93,30a5.06,5.06,0,0,1-.52-1.78,19.51,19.51,0,0,1-.18-2.81v-11a5.47,5.47,0,0,0-.86-3.13,5.75,5.75,0,0,0-2.23-1.94,10.58,10.58,0,0,0-3-.92,23.36,23.36,0,0,0-3.4-.24,17.81,17.81,0,0,0-3.63.35,10.12,10.12,0,0,0-3.17,1.21A6.81,6.81,0,0,0,242.59,12a7.33,7.33,0,0,0-1,3.44v.23h6.24l0-.2a3.13,3.13,0,0,1,1.06-2.28,4.12,4.12,0,0,1,2.56-.71,5.41,5.41,0,0,1,2.67.54,2.25,2.25,0,0,1,.87,2.1,1.5,1.5,0,0,1-1,1.55,17.6,17.6,0,0,1-3.75.77c-.71.08-1.35.16-1.89.24a19.25,19.25,0,0,0-2.81.58,7.83,7.83,0,0,0-2.29,1.1,5.09,5.09,0,0,0-1.67,2,6.83,6.83,0,0,0-.61,3A5.94,5.94,0,0,0,243,29.23a8.25,8.25,0,0,0,5.33,1.67,12.41,12.41,0,0,0,4-.65,8.22,8.22,0,0,0,2.92-1.71,8.61,8.61,0,0,0,.38,1.63l0,.16h6.43Zm-7-9.81v1.75a8.76,8.76,0,0,1-.12,1.41,4.53,4.53,0,0,1-.55,1.49A3.24,3.24,0,0,1,253,26.07a5.28,5.28,0,0,1-2.47.5A4.74,4.74,0,0,1,248,26a2,2,0,0,1-.86-1.91,2.25,2.25,0,0,1,.81-1.93,6.09,6.09,0,0,1,2.44-1L251.8,21c.91-.14,1.64-.27,2.17-.41A4,4,0,0,0,255,20.18Z"/><path class="cls-2" d="M71.38,52.54a7.87,7.87,0,0,1-2,4.64A5.79,5.79,0,0,1,65,58.89a7.5,7.5,0,0,1-3.5-.77A6.59,6.59,0,0,1,59.09,56a9.62,9.62,0,0,1-1.38-3,14.63,14.63,0,0,1-.44-3.61,15.73,15.73,0,0,1,.44-3.75,9.79,9.79,0,0,1,1.36-3.12,6.56,6.56,0,0,1,2.39-2.13A7.37,7.37,0,0,1,65,39.55,6.43,6.43,0,0,1,69.09,41a5.26,5.26,0,0,1,2,3.49l0,.2h6.66l0-.25a12.08,12.08,0,0,0-1.4-4.54,11.14,11.14,0,0,0-2.83-3.37,12.47,12.47,0,0,0-3.93-2.09,15.48,15.48,0,0,0-4.65-.7,15.26,15.26,0,0,0-6.08,1.18,13.1,13.1,0,0,0-4.61,3.33,14.77,14.77,0,0,0-2.89,5,18.52,18.52,0,0,0-1,6.12,17.9,17.9,0,0,0,1,6,14.32,14.32,0,0,0,2.89,4.92,13.25,13.25,0,0,0,4.61,3.29A15.26,15.26,0,0,0,65,64.73a14.34,14.34,0,0,0,5-.85,12,12,0,0,0,6.79-6.31,15.15,15.15,0,0,0,1.29-5l0-.24H71.41Z"/><path class="cls-2" d="M101,61.92a19.61,19.61,0,0,1-.18-2.81v-11A5.44,5.44,0,0,0,99.91,45a5.67,5.67,0,0,0-2.23-1.94,10.58,10.58,0,0,0-3-.92,23.36,23.36,0,0,0-3.4-.24,17.81,17.81,0,0,0-3.63.35,10.12,10.12,0,0,0-3.17,1.21,6.81,6.81,0,0,0-2.34,2.28,7.32,7.32,0,0,0-1,3.43v.24h6.24l0-.2a3.11,3.11,0,0,1,1.06-2.28A4.12,4.12,0,0,1,91,46.21a5.41,5.41,0,0,1,2.67.54,2.25,2.25,0,0,1,.87,2.1,1.5,1.5,0,0,1-1,1.55,17.6,17.6,0,0,1-3.75.77c-.71.08-1.35.16-1.89.24A19.25,19.25,0,0,0,85,52a7.83,7.83,0,0,0-2.29,1.1,5.09,5.09,0,0,0-1.67,2,6.83,6.83,0,0,0-.61,3,5.94,5.94,0,0,0,2.08,4.89,8.25,8.25,0,0,0,5.33,1.67,12.41,12.41,0,0,0,4-.65,8.22,8.22,0,0,0,2.92-1.71,8.61,8.61,0,0,0,.38,1.63l0,.15h6.43l-.2-.33A5.06,5.06,0,0,1,101,61.92Zm-6.43-8v1.75a8.76,8.76,0,0,1-.12,1.41,4.4,4.4,0,0,1-.55,1.48,3.2,3.2,0,0,1-1.34,1.25,5.28,5.28,0,0,1-2.47.5,4.74,4.74,0,0,1-2.48-.56,2,2,0,0,1-.86-1.92,2.23,2.23,0,0,1,.81-1.92,6,6,0,0,1,2.44-1l1.39-.21c.91-.14,1.64-.28,2.17-.41A4,4,0,0,0,94.52,53.89Z"/><path class="cls-2" d="M124.35,45.35a8.47,8.47,0,0,0-3.08-2.54,9.75,9.75,0,0,0-4.33-.92,8.29,8.29,0,0,0-3.74.84,6.71,6.71,0,0,0-2.42,2.05V42.46h-6v29h6.25V61.77a6.93,6.93,0,0,0,2.48,2,8.62,8.62,0,0,0,3.72.84,8.94,8.94,0,0,0,4.08-.91,8.75,8.75,0,0,0,3-2.47,11.26,11.26,0,0,0,1.82-3.57,14.79,14.79,0,0,0,.6-4.19,15.92,15.92,0,0,0-.6-4.41A11.47,11.47,0,0,0,124.35,45.35Zm-4.92,12.52a4.23,4.23,0,0,1-1.48,1.4,4.39,4.39,0,0,1-2.24.52,4.47,4.47,0,0,1-2.22-.52A4.4,4.4,0,0,1,112,57.85a6.31,6.31,0,0,1-.85-2.06,11.44,11.44,0,0,1-.26-2.48,12,12,0,0,1,.26-2.55,6.75,6.75,0,0,1,.84-2.1,4.11,4.11,0,0,1,1.49-1.44,4.58,4.58,0,0,1,2.22-.52,4.35,4.35,0,0,1,2.22.54,4.25,4.25,0,0,1,1.5,1.48,7.36,7.36,0,0,1,.85,2.12,10.57,10.57,0,0,1,.28,2.47,11.91,11.91,0,0,1-.26,2.53A6.24,6.24,0,0,1,119.43,57.87Z"/><rect class="cls-2" x="129.97" y="34.4" width="6.25" height="5.22"/><rect class="cls-2" x="129.97" y="42.46" width="6.25" height="21.58"/><path class="cls-2" d="M148.15,36.12H141.9v6.34h-3.51v4.32h3.51V59a5.71,5.71,0,0,0,.54,2.62A4,4,0,0,0,144,63.29a6.33,6.33,0,0,0,2.16.78,15.51,15.51,0,0,0,2.68.21,21.8,21.8,0,0,0,3.43-.21l.18,0v-5l-.26.05a8.72,8.72,0,0,1-1.76.16c-1.14,0-1.61-.23-1.81-.43s-.42-.66-.42-1.8V46.78h4.25V42.46h-4.25Z"/><path class="cls-2" d="M174.33,61.92a19.61,19.61,0,0,1-.18-2.81v-11a5.44,5.44,0,0,0-.86-3.13,5.67,5.67,0,0,0-2.23-1.94,10.48,10.48,0,0,0-3-.92,23.26,23.26,0,0,0-3.4-.24,17.65,17.65,0,0,0-3.62.35,10.08,10.08,0,0,0-3.18,1.21,6.9,6.9,0,0,0-2.34,2.28,7.32,7.32,0,0,0-1,3.43v.24h6.24l0-.2a3.11,3.11,0,0,1,1.06-2.28,4.12,4.12,0,0,1,2.56-.71,5.38,5.38,0,0,1,2.67.54,2.25,2.25,0,0,1,.87,2.1,1.5,1.5,0,0,1-1,1.55,17.6,17.6,0,0,1-3.75.77c-.71.08-1.34.16-1.88.24a19.12,19.12,0,0,0-2.82.58,8.08,8.08,0,0,0-2.29,1.1,5.15,5.15,0,0,0-1.66,2,6.68,6.68,0,0,0-.62,3,5.94,5.94,0,0,0,2.08,4.89,8.26,8.26,0,0,0,5.34,1.67,12.39,12.39,0,0,0,4-.65,8.22,8.22,0,0,0,2.92-1.71,8.61,8.61,0,0,0,.38,1.63l.05.15h6.43l-.2-.33A5.06,5.06,0,0,1,174.33,61.92Zm-6.43-8v1.75a8.76,8.76,0,0,1-.12,1.41,4.37,4.37,0,0,1-.54,1.48,3.23,3.23,0,0,1-1.35,1.25,5.28,5.28,0,0,1-2.47.5,4.74,4.74,0,0,1-2.48-.56,2.06,2.06,0,0,1-.85-1.92,2.21,2.21,0,0,1,.81-1.92,5.9,5.9,0,0,1,2.43-1l1.39-.21c.91-.14,1.64-.28,2.17-.41A3.74,3.74,0,0,0,167.9,53.89Z"/><rect class="cls-2" x="178.37" y="34.4" width="6.25" height="29.63"/><path class="cls-2" d="M190.5,58.54a2.84,2.84,0,1,0,2.69,2.84A2.78,2.78,0,0,0,190.5,58.54Z"/></g></g></svg>